<svg width="28" height="20" viewBox="0 0 28 20" fill="none" xmlns="http://www.w3.org/2000/svg">
<path d="M27.9593 9.80416C27.9182 9.71229 26.931 7.52058 24.7211 5.30712C22.6741 3.25686 19.1536 0.8125 14 0.8125C8.84644 0.8125 5.32585 3.25686 3.27891 5.30712C1.06904 7.52058 0.0817775 9.71229 0.0407422 9.80416C0.0138676 9.86615 0 9.93302 0 10.0006C0 10.0682 0.0138676 10.1351 0.0407422 10.197C0.0817775 10.2901 1.06904 12.4806 3.27891 14.6941C5.33068 16.7492 8.84765 19.1875 14 19.1875C19.1523 19.1875 22.6741 16.7444 24.7211 14.6941C26.931 12.4806 27.9182 10.2901 27.9593 10.197C27.9861 10.1351 28 10.0682 28 10.0006C28 9.93302 27.9861 9.86615 27.9593 9.80416ZM24.0126 14.0352C21.2283 16.8157 17.8573 18.2204 13.9952 18.2204C10.133 18.2204 6.76692 16.812 3.97772 14.0352C2.79094 12.8498 1.79287 11.4888 1.01835 10C1.79431 8.51083 2.79403 7.14988 3.98255 5.96475C6.77174 3.18795 10.1378 1.77961 14 1.77961C17.8622 1.77961 21.2283 3.18795 24.0175 5.96475C25.2058 7.15 26.2055 8.51093 26.9816 10C26.2057 11.4891 25.2059 12.8501 24.0175 14.0352H24.0126ZM14 4.68092C12.9497 4.68092 11.923 4.99288 11.0497 5.57735C10.1764 6.16182 9.49571 6.99254 9.09378 7.96448C8.69184 8.93641 8.58668 10.0059 8.79158 11.0377C8.99649 12.0695 9.50226 13.0173 10.2449 13.7612C10.9876 14.505 11.9339 15.0116 12.964 15.2169C13.9941 15.4221 15.0619 15.3168 16.0322 14.9142C17.0026 14.5116 17.832 13.8298 18.4155 12.9551C18.999 12.0804 19.3105 11.052 19.3105 10C19.3089 8.58978 18.7489 7.23778 17.7533 6.24061C16.7577 5.24344 15.4079 4.68252 14 4.68092ZM14 14.352C13.1407 14.352 12.3006 14.0967 11.5861 13.6185C10.8716 13.1403 10.3147 12.4606 9.98582 11.6654C9.65696 10.8702 9.57092 9.99517 9.73857 9.15097C9.90622 8.30677 10.32 7.53132 10.9277 6.92269C11.5353 6.31406 12.3095 5.89957 13.1523 5.73165C13.9952 5.56373 14.8688 5.64991 15.6627 5.9793C16.4567 6.30869 17.1352 6.8665 17.6127 7.58217C18.0901 8.29785 18.3449 9.13926 18.3449 10C18.3449 11.1542 17.8872 12.2612 17.0723 13.0773C16.2575 13.8935 15.1523 14.352 14 14.352Z" fill="#969696"/>
</svg>
