<svg width="68" height="68" viewBox="0 0 68 68" fill="none" xmlns="http://www.w3.org/2000/svg">
<g filter="url(#filter0_d_795_4437)">
<circle cx="32" cy="32" r="30" fill="#285E9A"/>
</g>
<path fill-rule="evenodd" clip-rule="evenodd" d="M47.75 32C47.75 31.7569 47.6315 31.5238 47.4205 31.3519C47.2096 31.18 46.9234 31.0835 46.6251 31.0835L20.0925 31.0835L27.1728 25.3166C27.2774 25.2314 27.3604 25.1302 27.417 25.0189C27.4736 24.9075 27.5027 24.7882 27.5027 24.6677C27.5027 24.5472 27.4736 24.4278 27.417 24.3165C27.3604 24.2052 27.2774 24.104 27.1728 24.0188C27.0682 23.9336 26.9441 23.866 26.8074 23.8199C26.6707 23.7737 26.5243 23.75 26.3764 23.75C26.2284 23.75 26.082 23.7737 25.9453 23.8199C25.8087 23.866 25.6845 23.9336 25.5799 24.0188L16.5805 31.3511C16.4757 31.4362 16.3926 31.5374 16.3359 31.6487C16.2792 31.7601 16.25 31.8794 16.25 32C16.25 32.1206 16.2792 32.2399 16.3359 32.3513C16.3926 32.4626 16.4757 32.5638 16.5805 32.6489L25.5799 39.9812C25.6845 40.0664 25.8087 40.134 25.9453 40.1801C26.082 40.2263 26.2284 40.25 26.3764 40.25C26.5243 40.25 26.6707 40.2263 26.8074 40.1801C26.9441 40.134 27.0682 40.0664 27.1728 39.9812C27.2774 39.896 27.3604 39.7948 27.417 39.6835C27.4736 39.5722 27.5027 39.4528 27.5027 39.3323C27.5027 39.2118 27.4736 39.0925 27.417 38.9811C27.3604 38.8698 27.2774 38.7686 27.1728 38.6834L20.0925 32.9165L46.6251 32.9165C46.9234 32.9165 47.2096 32.82 47.4205 32.6481C47.6315 32.4762 47.75 32.2431 47.75 32Z" fill="#F6F9FF"/>
<defs>
<filter id="filter0_d_795_4437" x="0" y="0" width="68" height="68" filterUnits="userSpaceOnUse" color-interpolation-filters="sRGB">
<feFlood flood-opacity="0" result="BackgroundImageFix"/>
<feColorMatrix in="SourceAlpha" type="matrix" values="0 0 0 0 0 0 0 0 0 0 0 0 0 0 0 0 0 0 127 0" result="hardAlpha"/>
<feOffset dx="2" dy="2"/>
<feGaussianBlur stdDeviation="2"/>
<feComposite in2="hardAlpha" operator="out"/>
<feColorMatrix type="matrix" values="0 0 0 0 0 0 0 0 0 0.290196 0 0 0 0 0.611765 0 0 0 0.3 0"/>
<feBlend mode="normal" in2="BackgroundImageFix" result="effect1_dropShadow_795_4437"/>
<feBlend mode="normal" in="SourceGraphic" in2="effect1_dropShadow_795_4437" result="shape"/>
</filter>
</defs>
</svg>
