<svg width="30" height="30" viewBox="0 0 30 30" fill="none" xmlns="http://www.w3.org/2000/svg">
<path d="M7.5 1.5C4.18629 1.5 1.5 4.18629 1.5 7.5V22.5C1.5 25.8137 4.18629 28.5 7.5 28.5H22.5C25.8137 28.5 28.5 25.8137 28.5 22.5V7.5C28.5 4.18629 25.8137 1.5 22.5 1.5H7.5Z" fill="#285E9A" fill-opacity="0.15" stroke="#285E9A" stroke-width="2"/>
<path d="M11.7146 20.2944L7.51024 15.9209C7.40229 15.8086 7.25373 15.7436 7.09664 15.7436C6.93955 15.7436 6.79099 15.8086 6.68304 15.9209C6.57541 16.0329 6.5166 16.1827 6.5166 16.3369C6.5166 16.4912 6.57541 16.641 6.68304 16.7529L11.3009 21.5566C11.3543 21.6122 11.4182 21.6568 11.4893 21.6875C11.5604 21.7181 11.637 21.734 11.7146 21.734C11.7922 21.734 11.8688 21.7181 11.9399 21.6875C12.011 21.6568 12.0749 21.6122 12.1283 21.5566L22.6835 10.5767L22.5033 10.4035L22.6835 10.5767C22.7911 10.4648 22.8499 10.3149 22.8499 10.1607C22.8499 10.0065 22.7911 9.85664 22.6835 9.74468L22.5033 9.91794L22.6835 9.74468C22.5755 9.63239 22.427 9.56738 22.2699 9.56738C22.1128 9.56738 21.9642 9.63239 21.8563 9.74468L11.7146 20.2944Z" fill="#285E9A" stroke="#285E9A" stroke-width="0.5"/>
</svg>
