<svg width="19" height="19" viewBox="0 0 19 19" fill="none" xmlns="http://www.w3.org/2000/svg">
<path d="M2.38208 4.52954H3.89193H15.9707" stroke="#285E9A" stroke-width="1.35887" stroke-linecap="round" stroke-linejoin="round"/>
<path d="M6.15662 4.52956V3.01971C6.15662 2.61927 6.3157 2.23523 6.59885 1.95208C6.882 1.66893 7.26604 1.50986 7.66648 1.50986H10.6862C11.0866 1.50986 11.4707 1.66893 11.7538 1.95208C12.037 2.23523 12.196 2.61927 12.196 3.01971V4.52956M14.4608 4.52956V15.0985C14.4608 15.499 14.3017 15.883 14.0186 16.1662C13.7354 16.4493 13.3514 16.6084 12.951 16.6084H5.4017C5.00126 16.6084 4.61722 16.4493 4.33407 16.1662C4.05092 15.883 3.89185 15.499 3.89185 15.0985V4.52956H14.4608Z" stroke="#285E9A" stroke-width="1.35887" stroke-linecap="round" stroke-linejoin="round"/>
<path d="M7.6665 8.3042V12.8338" stroke="#285E9A" stroke-width="1.35887" stroke-linecap="round" stroke-linejoin="round"/>
<path d="M10.686 8.3042V12.8338" stroke="#285E9A" stroke-width="1.35887" stroke-linecap="round" stroke-linejoin="round"/>
</svg>
