<svg width="16" height="18" viewBox="0 0 16 18" fill="none" xmlns="http://www.w3.org/2000/svg">
<path d="M11.0833 1.375V4.54167C11.0833 4.75163 11.1667 4.95299 11.3152 5.10146C11.4637 5.24993 11.665 5.33333 11.875 5.33333H15.0416" stroke="#285E9A" stroke-width="1.36" stroke-linecap="round" stroke-linejoin="round"/>
<path d="M3.95831 9.29167V2.95833C3.95831 2.53841 4.12513 2.13568 4.42206 1.83875C4.71899 1.54181 5.12172 1.375 5.54165 1.375H11.0833L15.0416 5.33333V14.0417C15.0416 14.4616 14.8748 14.8643 14.5779 15.1613C14.281 15.4582 13.8782 15.625 13.4583 15.625H9.10415M1.58331 14.0417H7.12498M7.12498 14.0417L4.74998 11.6667M7.12498 14.0417L4.74998 16.4167" stroke="#285E9A" stroke-width="1.36" stroke-linecap="round" stroke-linejoin="round"/>
</svg>
