<svg width="199" height="177" viewBox="0 0 199 177" fill="none" xmlns="http://www.w3.org/2000/svg">
<path d="M0 33.1875V17.8659C0 12.7772 1.70624 8.52919 5.11872 5.12194C8.5312 1.71469 12.7765 0.007375 17.8547 0H181.145C186.231 0 190.476 1.70731 193.881 5.12194C197.286 8.53656 198.993 12.7846 199 17.8659V33.1875H187.944V17.8659C187.944 15.8821 187.307 14.2522 186.032 12.9763C184.757 11.7004 183.128 11.0625 181.145 11.0625H17.8547C15.8721 11.0625 14.2432 11.7004 12.9682 12.9763C11.6931 14.2522 11.0556 15.8821 11.0556 17.8659V33.1875H0ZM66.3333 177V154.875H17.8547C12.7692 154.875 8.52383 153.171 5.11872 149.764C1.71361 146.357 0.00737037 142.105 0 137.009V121.688H11.0556V137.009C11.0556 138.993 11.6931 140.623 12.9682 141.899C14.2432 143.175 15.8721 143.812 17.8547 143.812H181.145C183.128 143.812 184.757 143.175 186.032 141.899C187.307 140.623 187.944 138.993 187.944 137.009V121.688H199V137.009C199 142.098 197.297 146.346 193.892 149.753C190.487 153.16 186.238 154.868 181.145 154.875H132.667V177H66.3333ZM15.6436 77.4375L44.3881 48.675L36.5718 40.8428L0 77.4375L36.5718 114.032L44.3881 106.2L15.6436 77.4375ZM183.356 77.4375L154.612 106.2L162.428 114.032L199 77.4375L162.428 40.8428L154.612 48.675L183.356 77.4375Z" fill="#285E9A"/>
</svg>
