<svg width="261" height="109" viewBox="0 0 261 109" fill="none" xmlns="http://www.w3.org/2000/svg">
<g filter="url(#filter0_b_1085_1553)">
<mask id="path-1-inside-1_1085_1553" fill="white">
<path d="M0 20.0356C0 8.98995 8.9543 0.0356445 20 0.0356445L241 0.0356445C252.046 0.0356445 261 8.98995 261 20.0356V88.0356C261 99.0813 252.046 108.036 241 108.036L20 108.036C8.9543 108.036 0 99.0813 0 88.0356L0 20.0356Z"/>
</mask>
<path d="M0 20.0356C0 8.98995 8.9543 0.0356445 20 0.0356445L241 0.0356445C252.046 0.0356445 261 8.98995 261 20.0356V88.0356C261 99.0813 252.046 108.036 241 108.036L20 108.036C8.9543 108.036 0 99.0813 0 88.0356L0 20.0356Z" fill="#FEE0DF"/>
<path d="M0 0.0356445L261 0.0356445L0 0.0356445ZM261 108.036L0 108.036L261 108.036ZM20 108.036C7.29745 108.036 -3 97.7382 -3 85.0356L-3 23.0356C-3 10.3331 7.29745 0.0356445 20 0.0356445C10.6112 0.0356445 3 8.98995 3 20.0356L3 88.0356C3 99.0813 10.6112 108.036 20 108.036ZM261 0.0356445V108.036V0.0356445Z" fill="#FF0000" mask="url(#path-1-inside-1_1085_1553)"/>
<path d="M26 38.0356C26 39.1402 25.1046 40.0356 24 40.0356C22.8954 40.0356 22 39.1402 22 38.0356C22 36.9311 22.8954 36.0356 24 36.0356C25.1046 36.0356 26 36.9311 26 38.0356Z" fill="#FF0000"/>
<path d="M22.3404 22.0356H25.6936L24.8085 34.237H23.1745L22.3404 22.0356Z" fill="#FF0000"/>
<path d="M45.76 39.2156C44.4133 39.2156 43.2467 38.9223 42.26 38.3356C41.2733 37.7356 40.5067 36.8956 39.96 35.8156C39.4267 34.7223 39.16 33.4423 39.16 31.9756C39.16 30.4956 39.4267 29.2156 39.96 28.1356C40.5067 27.0556 41.2733 26.2223 42.26 25.6356C43.2467 25.049 44.4133 24.7556 45.76 24.7556C47.0933 24.7556 48.2533 25.049 49.24 25.6356C50.24 26.2223 51.0067 27.0556 51.54 28.1356C52.0867 29.2156 52.36 30.489 52.36 31.9556C52.36 33.4356 52.0867 34.7223 51.54 35.8156C51.0067 36.8956 50.24 37.7356 49.24 38.3356C48.2533 38.9223 47.0933 39.2156 45.76 39.2156ZM45.76 37.4156C47.16 37.4156 48.2467 36.9423 49.02 35.9956C49.8067 35.0356 50.2 33.6956 50.2 31.9756C50.2 30.2556 49.8133 28.9223 49.04 27.9756C48.2667 27.029 47.1733 26.5556 45.76 26.5556C44.36 26.5556 43.2667 27.029 42.48 27.9756C41.7067 28.9223 41.32 30.2556 41.32 31.9756C41.32 33.6956 41.7067 35.0356 42.48 35.9956C43.2667 36.9423 44.36 37.4156 45.76 37.4156ZM55.0278 39.0356V29.2756H56.9478V37.4356H60.6878V29.2756H62.6078V37.4356H66.3478V29.2756H68.2678V39.0356H55.0278ZM71.3169 39.0356V29.2756H73.1569V36.3556L78.4369 29.2756H80.1369V39.0356H78.2969V31.9756L73.0169 39.0356H71.3169ZM87.4923 39.2156C85.9857 39.2156 84.7923 38.7423 83.9123 37.7956C83.0457 36.849 82.6123 35.4556 82.6123 33.6156V32.1356C82.6123 30.189 83.0257 28.709 83.8523 27.6956C84.679 26.669 85.9123 25.9423 87.5523 25.5156L90.9923 24.6156L91.6323 26.2356L87.6923 27.2356C86.6523 27.5023 85.8657 27.989 85.3323 28.6956C84.799 29.4023 84.5323 30.2756 84.5323 31.3156V31.3956C84.839 30.7556 85.2857 30.249 85.8723 29.8756C86.4723 29.5023 87.1857 29.3156 88.0123 29.3156C88.839 29.3156 89.5657 29.5156 90.1923 29.9156C90.8323 30.3023 91.3323 30.8623 91.6923 31.5956C92.0523 32.329 92.2323 33.1956 92.2323 34.1956C92.2323 35.2223 92.0323 36.1156 91.6323 36.8756C91.2457 37.6223 90.6923 38.2023 89.9723 38.6156C89.2657 39.0156 88.439 39.2156 87.4923 39.2156ZM87.4123 37.6556C88.2923 37.6556 88.9723 37.369 89.4523 36.7956C89.9457 36.209 90.1923 35.369 90.1923 34.2756C90.1923 33.1956 89.9457 32.3623 89.4523 31.7756C88.959 31.1756 88.279 30.8756 87.4123 30.8756C86.559 30.8756 85.8857 31.169 85.3923 31.7556C84.899 32.329 84.6523 33.1223 84.6523 34.1356C84.6523 35.2956 84.8923 36.1756 85.3723 36.7756C85.8657 37.3623 86.5457 37.6556 87.4123 37.6556ZM94.7153 39.0356V29.2756H96.7353V33.2356H98.3753L101.395 29.2756H103.595L100.295 33.6556C100.615 33.8023 100.909 34.029 101.175 34.3356C101.455 34.629 101.742 35.0356 102.035 35.5556L104.055 39.0356H101.895L100.195 36.1156C99.8886 35.5956 99.5886 35.249 99.2953 35.0756C99.0153 34.9023 98.622 34.8156 98.1153 34.8156H96.7353V39.0356H94.7153ZM108.676 39.2156C107.996 39.2156 107.389 39.0823 106.856 38.8156C106.322 38.549 105.896 38.189 105.576 37.7356C105.269 37.2823 105.116 36.769 105.116 36.1956C105.116 35.4756 105.296 34.909 105.656 34.4956C106.029 34.0823 106.636 33.7823 107.476 33.5956C108.329 33.409 109.476 33.3156 110.916 33.3156H111.596V32.7956C111.596 32.0356 111.436 31.489 111.116 31.1556C110.796 30.8223 110.269 30.6556 109.536 30.6556C108.976 30.6556 108.416 30.7423 107.856 30.9156C107.296 31.0756 106.722 31.3356 106.136 31.6956L105.516 30.2756C106.022 29.9156 106.656 29.629 107.416 29.4156C108.176 29.2023 108.902 29.0956 109.596 29.0956C110.929 29.0956 111.916 29.4156 112.556 30.0556C113.196 30.6823 113.516 31.669 113.516 33.0156V39.0356H111.616V37.4156C111.376 37.9756 111.002 38.4156 110.496 38.7356C109.989 39.0556 109.382 39.2156 108.676 39.2156ZM109.076 37.7756C109.796 37.7756 110.396 37.5223 110.876 37.0156C111.356 36.509 111.596 35.869 111.596 35.0956V34.5556H110.936C109.962 34.5556 109.196 34.6023 108.636 34.6956C108.089 34.789 107.696 34.949 107.456 35.1756C107.229 35.389 107.116 35.689 107.116 36.0756C107.116 36.5823 107.289 36.9956 107.636 37.3156C107.982 37.6223 108.462 37.7756 109.076 37.7756Z" fill="#FF0000"/>
</g>
<defs>
<filter id="filter0_b_1085_1553" x="-10" y="-9.96436" width="281" height="128" filterUnits="userSpaceOnUse" color-interpolation-filters="sRGB">
<feFlood flood-opacity="0" result="BackgroundImageFix"/>
<feGaussianBlur in="BackgroundImageFix" stdDeviation="5"/>
<feComposite in2="SourceAlpha" operator="in" result="effect1_backgroundBlur_1085_1553"/>
<feBlend mode="normal" in="SourceGraphic" in2="effect1_backgroundBlur_1085_1553" result="shape"/>
</filter>
</defs>
</svg>
