<svg width="261" height="109" viewBox="0 0 261 109" fill="none" xmlns="http://www.w3.org/2000/svg">
<g filter="url(#filter0_b_1085_1561)">
<mask id="path-1-inside-1_1085_1561" fill="white">
<path d="M0 20.0356C0 8.98995 8.9543 0.0356445 20 0.0356445L241 0.0356445C252.046 0.0356445 261 8.98995 261 20.0356V88.0356C261 99.0813 252.046 108.036 241 108.036L20 108.036C8.9543 108.036 0 99.0813 0 88.0356L0 20.0356Z"/>
</mask>
<path d="M0 20.0356C0 8.98995 8.9543 0.0356445 20 0.0356445L241 0.0356445C252.046 0.0356445 261 8.98995 261 20.0356V88.0356C261 99.0813 252.046 108.036 241 108.036L20 108.036C8.9543 108.036 0 99.0813 0 88.0356L0 20.0356Z" fill="#E8FFE4"/>
<path d="M0 0.0356445L261 0.0356445L0 0.0356445ZM261 108.036L0 108.036L261 108.036ZM20 108.036C7.29745 108.036 -3 97.7382 -3 85.0356L-3 23.0356C-3 10.3331 7.29745 0.0356445 20 0.0356445C10.6112 0.0356445 3 8.98995 3 20.0356L3 88.0356C3 99.0813 10.6112 108.036 20 108.036ZM261 0.0356445V108.036V0.0356445Z" fill="#1AC646" mask="url(#path-1-inside-1_1085_1561)"/>
<path d="M37 25.0356L26.3333 39.0356L21 32.0356" stroke="#1AC646" stroke-width="2.5" stroke-linecap="square" stroke-linejoin="round"/>
<path d="M49.8 39.0356L51.98 34.7956L45.86 24.9356H48.08L52.96 32.8956L57.04 24.9356H59.18L51.96 39.0356H49.8ZM63.5783 39.2156C62.5783 39.2156 61.7116 39.009 60.9783 38.5956C60.2583 38.169 59.6983 37.5756 59.2983 36.8156C58.8983 36.0423 58.6983 35.1356 58.6983 34.0956C58.6983 32.549 59.1383 31.329 60.0183 30.4356C60.8983 29.5423 62.0849 29.0956 63.5783 29.0956C64.1916 29.0956 64.7983 29.2023 65.3983 29.4156C65.9983 29.629 66.4916 29.9223 66.8783 30.2956L66.2383 31.7156C65.8649 31.369 65.4516 31.1156 64.9983 30.9556C64.5583 30.7823 64.1383 30.6956 63.7383 30.6956C62.7916 30.6956 62.0583 30.9956 61.5383 31.5956C61.0316 32.1823 60.7783 33.0223 60.7783 34.1156C60.7783 35.209 61.0316 36.069 61.5383 36.6956C62.0583 37.309 62.7916 37.6156 63.7383 37.6156C64.1383 37.6156 64.5583 37.5356 64.9983 37.3756C65.4516 37.2023 65.8649 36.9423 66.2383 36.5956L66.8783 38.0356C66.4916 38.3956 65.9916 38.6823 65.3783 38.8956C64.7783 39.109 64.1783 39.2156 63.5783 39.2156ZM68.8286 39.0356V29.2756H77.6686V39.0356H75.6486V30.8956H70.8486V39.0356H68.8286ZM85.2841 39.2156C83.6841 39.2156 82.4241 38.769 81.5041 37.8756C80.5841 36.969 80.1241 35.7356 80.1241 34.1756C80.1241 33.1756 80.3241 32.2956 80.7241 31.5356C81.1374 30.7623 81.7041 30.1623 82.4241 29.7356C83.1441 29.309 83.9707 29.0956 84.9041 29.0956C86.2507 29.0956 87.3107 29.529 88.0841 30.3956C88.8574 31.249 89.2441 32.429 89.2441 33.9356V34.6156H82.0841C82.2307 36.6423 83.3041 37.6556 85.3041 37.6556C85.8641 37.6556 86.4107 37.569 86.9441 37.3956C87.4907 37.2223 88.0041 36.9356 88.4841 36.5356L89.0841 37.9356C88.6441 38.3356 88.0774 38.649 87.3841 38.8756C86.6907 39.1023 85.9907 39.2156 85.2841 39.2156ZM84.9841 30.5156C84.1441 30.5156 83.4774 30.7756 82.9841 31.2956C82.4907 31.8156 82.1907 32.509 82.0841 33.3756H87.5441C87.5041 32.469 87.2641 31.769 86.8241 31.2756C86.3841 30.769 85.7707 30.5156 84.9841 30.5156ZM91.6411 39.0356V29.2756H93.5611V37.4356H97.3011V29.2756H99.2211V37.4356H102.961V29.2756H104.881V39.0356H91.6411ZM107.93 39.0356V29.2756H109.95V33.2156H114.81V29.2756H116.83V39.0356H114.81V34.8156H109.95V39.0356H107.93ZM124.104 39.2156C123.118 39.2156 122.264 39.009 121.544 38.5956C120.824 38.1823 120.264 37.6023 119.864 36.8556C119.478 36.0956 119.284 35.1956 119.284 34.1556C119.284 33.1156 119.478 32.2223 119.864 31.4756C120.264 30.7156 120.824 30.129 121.544 29.7156C122.264 29.3023 123.118 29.0956 124.104 29.0956C125.064 29.0956 125.904 29.3023 126.624 29.7156C127.344 30.129 127.904 30.7156 128.304 31.4756C128.704 32.2223 128.904 33.1156 128.904 34.1556C128.904 35.1956 128.704 36.0956 128.304 36.8556C127.904 37.6023 127.344 38.1823 126.624 38.5956C125.904 39.009 125.064 39.2156 124.104 39.2156ZM124.104 37.6556C124.931 37.6556 125.598 37.3556 126.104 36.7556C126.611 36.1556 126.864 35.289 126.864 34.1556C126.864 33.0223 126.611 32.1623 126.104 31.5756C125.598 30.9756 124.931 30.6756 124.104 30.6756C123.264 30.6756 122.591 30.9756 122.084 31.5756C121.578 32.1623 121.324 33.0223 121.324 34.1556C121.324 35.289 121.578 36.1556 122.084 36.7556C122.591 37.3556 123.264 37.6556 124.104 37.6556Z" fill="#1AC646"/>
</g>
<defs>
<filter id="filter0_b_1085_1561" x="-10" y="-9.96436" width="281" height="128" filterUnits="userSpaceOnUse" color-interpolation-filters="sRGB">
<feFlood flood-opacity="0" result="BackgroundImageFix"/>
<feGaussianBlur in="BackgroundImageFix" stdDeviation="5"/>
<feComposite in2="SourceAlpha" operator="in" result="effect1_backgroundBlur_1085_1561"/>
<feBlend mode="normal" in="SourceGraphic" in2="effect1_backgroundBlur_1085_1561" result="shape"/>
</filter>
</defs>
</svg>
