<svg width="20" height="21" viewBox="0 0 20 21" fill="none" xmlns="http://www.w3.org/2000/svg">
<path d="M11.6032 1.14324C11.2555 1 10.8142 1 9.93125 1C9.04839 1 8.60696 1 8.25927 1.14324C8.02929 1.23795 7.82026 1.37683 7.64424 1.55194C7.46822 1.72704 7.32859 1.93494 7.23339 2.16376C7.14622 2.37388 7.11116 2.61983 7.09792 2.97697C7.09199 3.23515 7.02022 3.4876 6.88932 3.71061C6.75842 3.93364 6.5727 4.11989 6.34956 4.25191C6.12303 4.37822 5.86796 4.44517 5.60832 4.44649C5.34867 4.44782 5.09292 4.38344 4.86513 4.25944C4.54684 4.09172 4.31665 3.99937 4.08835 3.96922C3.59038 3.90407 3.08678 4.03829 2.68825 4.34237C2.39081 4.57135 2.16914 4.9511 1.72769 5.71154C1.28626 6.47201 1.0646 6.85173 1.01628 7.22397C0.983724 7.46935 1.0001 7.71876 1.06447 7.95789C1.12883 8.19702 1.23992 8.42118 1.39141 8.61762C1.5316 8.79854 1.72769 8.95028 2.03177 9.14062C2.47985 9.42046 2.76782 9.89727 2.76782 10.4231C2.76782 10.9489 2.47985 11.4257 2.03177 11.7047C1.72769 11.8959 1.53066 12.0476 1.39141 12.2285C1.23992 12.425 1.12883 12.6491 1.06447 12.8883C1.0001 13.1274 0.983724 13.3768 1.01628 13.6222C1.06554 13.9935 1.28626 14.3742 1.72675 15.1346C2.16914 15.8951 2.38985 16.2748 2.68825 16.5038C2.8857 16.6545 3.11107 16.765 3.35145 16.829C3.59185 16.8931 3.84258 16.9094 4.0893 16.8769C4.31665 16.8468 4.54684 16.7545 4.86513 16.5867C5.09292 16.4627 5.34867 16.3984 5.60832 16.3996C5.86796 16.401 6.12303 16.4679 6.34956 16.5942C6.80709 16.8581 7.07896 17.3434 7.09792 17.8692C7.11116 18.2273 7.14525 18.4723 7.23339 18.6824C7.32859 18.9112 7.46822 19.1191 7.64424 19.2943C7.82026 19.4693 8.02929 19.6082 8.25927 19.7029C8.60696 19.8462 9.04839 19.8462 9.93125 19.8462C10.8142 19.8462 11.2555 19.8462 11.6032 19.7029C11.8333 19.6082 12.0422 19.4693 12.2183 19.2943C12.3944 19.1191 12.534 18.9112 12.6291 18.6824C12.7163 18.4723 12.7513 18.2273 12.7646 17.8692C12.7836 17.3434 13.0554 16.8572 13.5129 16.5942C13.7395 16.4679 13.9946 16.401 14.2542 16.3996C14.5138 16.3984 14.7696 16.4627 14.9974 16.5867C15.3157 16.7545 15.5459 16.8468 15.7732 16.8769C16.0199 16.9094 16.2707 16.8931 16.5111 16.829C16.7514 16.765 16.9769 16.6545 17.1743 16.5038C17.4727 16.2758 17.6933 15.8951 18.1349 15.1346C18.5762 14.3742 18.7979 13.9945 18.8462 13.6222C18.8788 13.3768 18.8624 13.1274 18.798 12.8883C18.7337 12.6491 18.6226 12.425 18.4711 12.2285C18.3309 12.0476 18.1349 11.8959 17.8307 11.7056C17.6088 11.5713 17.4249 11.3833 17.2961 11.1589C17.1674 10.9346 17.098 10.6814 17.0947 10.4231C17.0947 9.89727 17.3826 9.42046 17.8307 9.14154C18.1349 8.95028 18.3318 8.79854 18.4711 8.61762C18.6226 8.42118 18.7337 8.19702 18.798 7.95789C18.8624 7.71876 18.8788 7.46935 18.8462 7.22397C18.797 6.8527 18.5762 6.47201 18.1357 5.71154C17.6933 4.9511 17.4727 4.57135 17.1743 4.34237C16.9769 4.19169 16.7514 4.08117 16.5111 4.01714C16.2707 3.95312 16.0199 3.93683 15.7732 3.96922C15.5459 3.99937 15.3157 4.09172 14.9964 4.25944C14.7688 4.38328 14.5132 4.44755 14.2537 4.44623C13.9942 4.44491 13.7394 4.37805 13.5129 4.25191C13.2899 4.11989 13.1041 3.93364 12.9732 3.71061C12.8422 3.4876 12.7705 3.23515 12.7646 2.97697C12.7513 2.61889 12.7172 2.37388 12.6291 2.16376C12.534 1.93494 12.3944 1.72704 12.2183 1.55194C12.0422 1.37683 11.8333 1.23795 11.6032 1.14324Z" fill="white" fill-opacity="0.41" stroke="#285E9A" stroke-width="1.61538"/>
<path d="M9.84189 13.6538C11.4114 13.6538 12.6838 12.3882 12.6838 10.8269C12.6838 9.26565 11.4114 8 9.84189 8C8.27238 8 7 9.26565 7 10.8269C7 12.3882 8.27238 13.6538 9.84189 13.6538Z" fill="white" stroke="#285E9A" stroke-width="1.61538"/>
</svg>


