<svg width="639" height="639" viewBox="0 0 639 639" fill="none" xmlns="http://www.w3.org/2000/svg">
<g filter="url(#filter0_d_56_22)">
<path d="M300.706 582.618C456.401 582.618 582.618 456.401 582.618 300.706C582.618 145.01 456.401 18.7941 300.706 18.7941C145.01 18.7941 18.7941 145.01 18.7941 300.706C18.7941 456.401 145.01 582.618 300.706 582.618Z" fill="#285E9A"/>
</g>
<path d="M301 351C328.614 351 351 328.614 351 301C351 273.386 328.614 251 301 251C273.386 251 251 273.386 251 301C251 328.614 273.386 351 301 351Z" stroke="white" stroke-width="20"/>
<path d="M330.578 136.531C324.428 134 316.619 134 301 134C285.382 134 277.572 134 271.422 136.531C267.353 138.204 263.655 140.658 260.541 143.752C257.427 146.846 254.957 150.52 253.273 154.563C251.731 158.276 251.111 162.621 250.876 168.932C250.772 173.494 249.502 177.954 247.186 181.895C244.87 185.835 241.585 189.126 237.638 191.459C233.63 193.691 229.118 194.874 224.524 194.897C219.931 194.921 215.407 193.783 211.377 191.592C205.746 188.629 201.674 186.997 197.635 186.464C188.826 185.313 179.917 187.684 172.866 193.057C167.604 197.103 163.683 203.813 155.873 217.25C148.064 230.687 144.143 237.396 143.288 243.973C142.712 248.309 143.002 252.716 144.14 256.941C145.279 261.167 147.244 265.127 149.924 268.598C152.404 271.795 155.873 274.476 161.253 277.839C169.18 282.784 174.274 291.209 174.274 300.5C174.274 309.79 169.18 318.215 161.253 323.144C155.873 326.523 152.388 329.204 149.924 332.401C147.244 335.872 145.279 339.831 144.14 344.058C143.002 348.283 142.712 352.689 143.288 357.027C144.159 363.586 148.064 370.313 155.857 383.749C163.683 397.186 167.587 403.896 172.866 407.941C176.359 410.604 180.346 412.557 184.599 413.688C188.852 414.82 193.287 415.108 197.652 414.535C201.674 414.003 205.746 412.371 211.377 409.407C215.407 407.216 219.931 406.079 224.524 406.101C229.118 406.125 233.63 407.308 237.638 409.54C245.732 414.203 250.541 422.777 250.876 432.067C251.111 438.394 251.714 442.724 253.273 446.437C254.957 450.478 257.427 454.153 260.541 457.248C263.655 460.341 267.353 462.794 271.422 464.468C277.572 467 285.382 467 301 467C316.619 467 324.428 467 330.578 464.468C334.648 462.794 338.344 460.341 341.459 457.248C344.575 454.153 347.044 450.478 348.727 446.437C350.269 442.724 350.888 438.394 351.124 432.067C351.46 422.777 356.269 414.185 364.363 409.54C368.37 407.308 372.883 406.125 377.476 406.101C382.069 406.079 386.594 407.216 390.624 409.407C396.255 412.371 400.327 414.003 404.349 414.535C408.713 415.108 413.149 414.82 417.402 413.688C421.653 412.557 425.642 410.604 429.135 407.941C434.413 403.913 438.317 397.186 446.128 383.749C453.936 370.313 457.858 363.604 458.712 357.027C459.288 352.689 458.998 348.283 457.86 344.058C456.722 339.831 454.756 335.872 452.076 332.401C449.596 329.204 446.128 326.523 440.748 323.161C436.822 320.789 433.567 317.466 431.289 313.502C429.012 309.538 427.785 305.064 427.727 300.5C427.727 291.209 432.82 282.784 440.748 277.856C446.128 274.476 449.612 271.795 452.076 268.598C454.756 265.127 456.722 261.167 457.86 256.941C458.998 252.716 459.288 248.309 458.712 243.973C457.842 237.413 453.936 230.687 446.143 217.25C438.317 203.813 434.413 197.103 429.135 193.057C425.642 190.395 421.653 188.442 417.402 187.311C413.149 186.18 408.713 185.892 404.349 186.464C400.327 186.997 396.255 188.629 390.606 191.592C386.579 193.78 382.058 194.916 377.468 194.893C372.877 194.869 368.368 193.688 364.363 191.459C360.417 189.126 357.131 185.835 354.814 181.895C352.497 177.954 351.228 173.494 351.124 168.932C350.888 162.605 350.285 158.276 348.727 154.563C347.044 150.52 344.575 146.846 341.459 143.752C338.344 140.658 334.648 138.204 330.578 136.531Z" stroke="white" stroke-width="20"/>
<defs>
<filter id="filter0_d_56_22" x="16.7941" y="16.7941" width="571.824" height="571.824" filterUnits="userSpaceOnUse" color-interpolation-filters="sRGB">
<feFlood flood-opacity="0" result="BackgroundImageFix"/>
<feColorMatrix in="SourceAlpha" type="matrix" values="0 0 0 0 0 0 0 0 0 0 0 0 0 0 0 0 0 0 127 0" result="hardAlpha"/>
<feOffset dx="2" dy="2"/>
<feGaussianBlur stdDeviation="2"/>
<feComposite in2="hardAlpha" operator="out"/>
<feColorMatrix type="matrix" values="0 0 0 0 0 0 0 0 0 0.290196 0 0 0 0 0.611765 0 0 0 0.3 0"/>
<feBlend mode="normal" in2="BackgroundImageFix" result="effect1_dropShadow_56_22"/>
<feBlend mode="normal" in="SourceGraphic" in2="effect1_dropShadow_56_22" result="shape"/>
</filter>
</defs>
</svg>
